<?xml version="1.0" encoding="UTF-8" standalone="no"?>
<!-- Created with Inkscape (http://www.inkscape.org/) -->

<svg
   xmlns:dc="http://purl.org/dc/elements/1.1/"
   xmlns:cc="http://creativecommons.org/ns#"
   xmlns:rdf="http://www.w3.org/1999/02/22-rdf-syntax-ns#"
   xmlns:svg="http://www.w3.org/2000/svg"
   xmlns="http://www.w3.org/2000/svg"
   xmlns:sodipodi="http://sodipodi.sourceforge.net/DTD/sodipodi-0.dtd"
   xmlns:inkscape="http://www.inkscape.org/namespaces/inkscape"
   width="210mm"
   height="297mm"
   viewBox="0 0 744.09448819 1052.3622047"
   id="svg3389"
   version="1.1"
   inkscape:version="0.91 r13725"
   sodipodi:docname="logo.svg">
  <defs
     id="defs3391">
    <clipPath
       clipPathUnits="userSpaceOnUse"
       id="clipPath16">
      <path
         d="m 0,226.77 476.22,0 L 476.22,0 0,0 0,226.77 Z"
         id="path18"
         inkscape:connector-curvature="0" />
    </clipPath>
  </defs>
  <sodipodi:namedview
     id="base"
     pagecolor="#ffffff"
     bordercolor="#666666"
     borderopacity="1.0"
     inkscape:pageopacity="0.0"
     inkscape:pageshadow="2"
     inkscape:zoom="0.7"
     inkscape:cx="377.41517"
     inkscape:cy="536.1142"
     inkscape:document-units="px"
     inkscape:current-layer="g10"
     showgrid="false"
     inkscape:window-width="1855"
     inkscape:window-height="1056"
     inkscape:window-x="65"
     inkscape:window-y="24"
     inkscape:window-maximized="1" />
  <metadata
     id="metadata3394">
    <rdf:RDF>
      <cc:Work
         rdf:about="">
        <dc:format>image/svg+xml</dc:format>
        <dc:type
           rdf:resource="http://purl.org/dc/dcmitype/StillImage" />
        <dc:title></dc:title>
      </cc:Work>
    </rdf:RDF>
  </metadata>
  <g
     inkscape:label="Layer 1"
     inkscape:groupmode="layer"
     id="layer1">
    <g
       id="g10"
       inkscape:groupmode="layer"
       inkscape:label="logo"
       transform="matrix(5.4646835,0,0,-5.4646835,-40.386358,1166.3054)">
      <g
         id="g12"
         transform="translate(10.613605,0)">
        <g
           id="g14"
           clip-path="url(#clipPath16)">
          <g
             id="g20"
             transform="translate(70.2588,101.3516)">
            <path
               d="m 0,0 c 0,2.177 -1.8,3.957 -4,3.957 l -37.808,0 c -2.2,0 -4,-1.78 -4,-3.957 0,-2.176 1.8,-3.956 4,-3.956 l 37.808,0 c 2.2,0 4,1.78 4,3.956 m -10.723,20.822 c 0,2.189 -1.8,3.98 -4,3.98 l -37.811,0 c -2.2,0 -4,-1.791 -4,-3.98 0,-2.188 1.8,-3.979 4,-3.979 l 37.811,0 c 2.2,0 4,1.791 4,3.979 M -21.632,-16.86 c -2.2,0 -4,-1.785 -4,-3.966 0,-2.182 1.8,-3.966 4,-3.966 l 37.811,0 c 2.2,0 4,1.784 4,3.966 0,2.181 -1.8,3.966 -4,3.966 l -37.811,0 z"
               style="fill:#009998;fill-opacity:1;fill-rule:nonzero;stroke:none"
               id="path22"
               inkscape:connector-curvature="0" />
          </g>
          <g
             id="g24"
             transform="translate(74.9121,21.4688)">
            <path
               d="m 0,0 c 21.924,39.744 -14.798,50.521 -33.483,69.186 -18.681,18.666 -36.96,38.229 -18.037,69.208 -26.047,-30.979 -16.714,-60.01 9.858,-83.303 C -15.07,31.777 0,15.353 0,0"
               style="fill:#676362;fill-opacity:1;fill-rule:nonzero;stroke:none"
               id="path26"
               inkscape:connector-curvature="0" />
          </g>
          <g
             id="g28"
             transform="translate(59.6328,132.749)">
            <path
               d="m 0,0 c 0,-2.188 1.8,-3.979 4,-3.979 l 37.807,0 c 2.2,0 4,1.791 4,3.979 0,2.188 -1.8,3.978 -4,3.978 L 4,3.978 C 1.8,3.978 0,2.188 0,0 m 10.722,-20.823 c 0,-2.176 1.799,-3.957 4,-3.957 l 37.813,0 c 2.2,0 4,1.781 4,3.957 0,2.177 -1.8,3.958 -4,3.958 l -37.813,0 c -2.201,0 -4,-1.781 -4,-3.958 m 10.909,37.675 c 2.2,0 4,1.789 4,3.975 0,2.186 -1.8,3.974 -4,3.974 l -37.802,0 c -2.2,0 -4,-1.788 -4,-3.974 0,-2.186 1.8,-3.975 4,-3.975 l 37.802,0 z"
               style="fill:#009998;fill-opacity:1;fill-rule:nonzero;stroke:none"
               id="path30"
               inkscape:connector-curvature="0" />
          </g>
          <g
             id="g32"
             transform="translate(54.9834,212.6372)">
            <path
               d="m 0,0 c -21.919,-39.736 14.8,-50.52 33.486,-69.196 18.678,-18.679 36.945,-38.245 18.04,-69.194 26.029,30.949 16.712,60.017 -9.876,83.303 C 15.07,-31.789 0,-15.346 0,0"
               style="fill:#6f6c6a;fill-opacity:1;fill-rule:nonzero;stroke:none"
               id="path34"
               inkscape:connector-curvature="0" />
          </g>
        </g>
      </g>
    </g>
  </g>
</svg>
